<mxfile host="app.diagrams.net" modified="2022-09-09T23:48:30.117Z" agent="5.0 (Windows NT 10.0; Win64; x64) AppleWebKit/537.36 (KHTML, like Gecko) Chrome/105.0.0.0 Safari/537.36" etag="FvkBXklgNE2WxP9kaOZG" version="20.3.0" type="github">
  <diagram id="C5RBs43oDa-KdzZeNtuy" name="Page-1">
    <mxGraphModel dx="1422" dy="1898" grid="1" gridSize="10" guides="1" tooltips="1" connect="1" arrows="1" fold="1" page="1" pageScale="1" pageWidth="827" pageHeight="1169" math="0" shadow="0">
      <root>
        <mxCell id="WIyWlLk6GJQsqaUBKTNV-0" />
        <mxCell id="WIyWlLk6GJQsqaUBKTNV-1" parent="WIyWlLk6GJQsqaUBKTNV-0" />
        <mxCell id="LgvfmR9-56JRPEU1bEDX-1" style="edgeStyle=orthogonalEdgeStyle;rounded=0;orthogonalLoop=1;jettySize=auto;html=1;endArrow=diamondThin;endFill=0;startSize=10;endSize=10;" parent="WIyWlLk6GJQsqaUBKTNV-1" source="zkfFHV4jXpPFQw0GAbJ--0" target="-KuMpNJdJ7WEaTeVx7aB-79" edge="1">
          <mxGeometry relative="1" as="geometry">
            <Array as="points">
              <mxPoint x="1310" y="-240" />
              <mxPoint x="1310" y="-240" />
            </Array>
          </mxGeometry>
        </mxCell>
        <mxCell id="zkfFHV4jXpPFQw0GAbJ--0" value="Proveedor" style="swimlane;fontStyle=2;align=center;verticalAlign=top;childLayout=stackLayout;horizontal=1;startSize=26;horizontalStack=0;resizeParent=1;resizeLast=0;collapsible=1;marginBottom=0;rounded=0;shadow=0;strokeWidth=1;" parent="WIyWlLk6GJQsqaUBKTNV-1" vertex="1">
          <mxGeometry x="1161" y="-560" width="160" height="120" as="geometry">
            <mxRectangle x="230" y="140" width="160" height="26" as="alternateBounds" />
          </mxGeometry>
        </mxCell>
        <mxCell id="-KuMpNJdJ7WEaTeVx7aB-61" value="Codigo" style="text;align=left;verticalAlign=top;spacingLeft=4;spacingRight=4;overflow=hidden;rotatable=0;points=[[0,0.5],[1,0.5]];portConstraint=eastwest;" parent="zkfFHV4jXpPFQw0GAbJ--0" vertex="1">
          <mxGeometry y="26" width="160" height="26" as="geometry" />
        </mxCell>
        <mxCell id="zkfFHV4jXpPFQw0GAbJ--1" value="Nombre: String" style="text;align=left;verticalAlign=top;spacingLeft=4;spacingRight=4;overflow=hidden;rotatable=0;points=[[0,0.5],[1,0.5]];portConstraint=eastwest;" parent="zkfFHV4jXpPFQw0GAbJ--0" vertex="1">
          <mxGeometry y="52" width="160" height="26" as="geometry" />
        </mxCell>
        <mxCell id="zkfFHV4jXpPFQw0GAbJ--4" value="" style="line;html=1;strokeWidth=1;align=left;verticalAlign=middle;spacingTop=-1;spacingLeft=3;spacingRight=3;rotatable=0;labelPosition=right;points=[];portConstraint=eastwest;" parent="zkfFHV4jXpPFQw0GAbJ--0" vertex="1">
          <mxGeometry y="78" width="160" height="8" as="geometry" />
        </mxCell>
        <mxCell id="-KuMpNJdJ7WEaTeVx7aB-0" style="edgeStyle=orthogonalEdgeStyle;rounded=0;orthogonalLoop=1;jettySize=auto;html=1;entryX=0;entryY=0.5;entryDx=0;entryDy=0;endArrow=none;endFill=0;" parent="WIyWlLk6GJQsqaUBKTNV-1" source="-KuMpNJdJ7WEaTeVx7aB-2" target="-KuMpNJdJ7WEaTeVx7aB-14" edge="1">
          <mxGeometry relative="1" as="geometry" />
        </mxCell>
        <mxCell id="-KuMpNJdJ7WEaTeVx7aB-1" style="edgeStyle=orthogonalEdgeStyle;rounded=0;orthogonalLoop=1;jettySize=auto;html=1;entryX=0.75;entryY=0;entryDx=0;entryDy=0;endArrow=none;endFill=0;" parent="WIyWlLk6GJQsqaUBKTNV-1" source="-KuMpNJdJ7WEaTeVx7aB-2" target="-KuMpNJdJ7WEaTeVx7aB-9" edge="1">
          <mxGeometry relative="1" as="geometry">
            <Array as="points">
              <mxPoint x="540" y="955" />
              <mxPoint x="460" y="955" />
              <mxPoint x="460" y="1035" />
            </Array>
          </mxGeometry>
        </mxCell>
        <mxCell id="-KuMpNJdJ7WEaTeVx7aB-2" value="Producto&lt;br&gt;" style="rounded=0;whiteSpace=wrap;html=1;" parent="WIyWlLk6GJQsqaUBKTNV-1" vertex="1">
          <mxGeometry x="420" y="795" width="160" height="40" as="geometry" />
        </mxCell>
        <mxCell id="-KuMpNJdJ7WEaTeVx7aB-3" style="edgeStyle=orthogonalEdgeStyle;rounded=0;orthogonalLoop=1;jettySize=auto;html=1;endArrow=none;endFill=0;" parent="WIyWlLk6GJQsqaUBKTNV-1" source="-KuMpNJdJ7WEaTeVx7aB-4" target="-KuMpNJdJ7WEaTeVx7aB-2" edge="1">
          <mxGeometry relative="1" as="geometry">
            <Array as="points">
              <mxPoint x="140" y="915" />
              <mxPoint x="430" y="915" />
            </Array>
          </mxGeometry>
        </mxCell>
        <mxCell id="-KuMpNJdJ7WEaTeVx7aB-4" value="Categoría" style="rounded=0;whiteSpace=wrap;html=1;" parent="WIyWlLk6GJQsqaUBKTNV-1" vertex="1">
          <mxGeometry x="20" y="1035" width="160" height="40" as="geometry" />
        </mxCell>
        <mxCell id="-KuMpNJdJ7WEaTeVx7aB-5" style="edgeStyle=orthogonalEdgeStyle;rounded=0;orthogonalLoop=1;jettySize=auto;html=1;endArrow=none;endFill=0;" parent="WIyWlLk6GJQsqaUBKTNV-1" source="-KuMpNJdJ7WEaTeVx7aB-6" target="-KuMpNJdJ7WEaTeVx7aB-2" edge="1">
          <mxGeometry relative="1" as="geometry" />
        </mxCell>
        <mxCell id="-KuMpNJdJ7WEaTeVx7aB-6" value="Sección" style="rounded=0;whiteSpace=wrap;html=1;" parent="WIyWlLk6GJQsqaUBKTNV-1" vertex="1">
          <mxGeometry x="20" y="795" width="160" height="40" as="geometry" />
        </mxCell>
        <mxCell id="-KuMpNJdJ7WEaTeVx7aB-7" style="edgeStyle=orthogonalEdgeStyle;rounded=0;orthogonalLoop=1;jettySize=auto;html=1;entryX=0;entryY=0.5;entryDx=0;entryDy=0;endArrow=none;endFill=0;" parent="WIyWlLk6GJQsqaUBKTNV-1" source="-KuMpNJdJ7WEaTeVx7aB-9" target="-KuMpNJdJ7WEaTeVx7aB-12" edge="1">
          <mxGeometry relative="1" as="geometry" />
        </mxCell>
        <mxCell id="-KuMpNJdJ7WEaTeVx7aB-8" style="edgeStyle=orthogonalEdgeStyle;rounded=0;orthogonalLoop=1;jettySize=auto;html=1;entryX=0.5;entryY=0;entryDx=0;entryDy=0;endArrow=none;endFill=0;" parent="WIyWlLk6GJQsqaUBKTNV-1" source="-KuMpNJdJ7WEaTeVx7aB-9" target="-KuMpNJdJ7WEaTeVx7aB-15" edge="1">
          <mxGeometry relative="1" as="geometry" />
        </mxCell>
        <mxCell id="-KuMpNJdJ7WEaTeVx7aB-9" value="Rotación de productos" style="rounded=0;whiteSpace=wrap;html=1;" parent="WIyWlLk6GJQsqaUBKTNV-1" vertex="1">
          <mxGeometry x="420" y="1035" width="160" height="40" as="geometry" />
        </mxCell>
        <mxCell id="-KuMpNJdJ7WEaTeVx7aB-10" value="Persona&lt;br&gt;" style="rounded=0;whiteSpace=wrap;html=1;" parent="WIyWlLk6GJQsqaUBKTNV-1" vertex="1">
          <mxGeometry x="1170" y="795" width="160" height="40" as="geometry" />
        </mxCell>
        <mxCell id="-KuMpNJdJ7WEaTeVx7aB-11" style="edgeStyle=orthogonalEdgeStyle;rounded=0;orthogonalLoop=1;jettySize=auto;html=1;endArrow=none;endFill=0;" parent="WIyWlLk6GJQsqaUBKTNV-1" source="-KuMpNJdJ7WEaTeVx7aB-12" target="-KuMpNJdJ7WEaTeVx7aB-14" edge="1">
          <mxGeometry relative="1" as="geometry" />
        </mxCell>
        <mxCell id="-KuMpNJdJ7WEaTeVx7aB-12" value="Pedido" style="rounded=0;whiteSpace=wrap;html=1;" parent="WIyWlLk6GJQsqaUBKTNV-1" vertex="1">
          <mxGeometry x="820" y="1035" width="160" height="40" as="geometry" />
        </mxCell>
        <mxCell id="-KuMpNJdJ7WEaTeVx7aB-13" style="edgeStyle=orthogonalEdgeStyle;rounded=0;orthogonalLoop=1;jettySize=auto;html=1;entryX=0;entryY=0.5;entryDx=0;entryDy=0;endArrow=none;endFill=0;" parent="WIyWlLk6GJQsqaUBKTNV-1" source="-KuMpNJdJ7WEaTeVx7aB-14" target="-KuMpNJdJ7WEaTeVx7aB-10" edge="1">
          <mxGeometry relative="1" as="geometry" />
        </mxCell>
        <mxCell id="-KuMpNJdJ7WEaTeVx7aB-14" value="Tipo persona" style="rounded=0;whiteSpace=wrap;html=1;" parent="WIyWlLk6GJQsqaUBKTNV-1" vertex="1">
          <mxGeometry x="820" y="795" width="160" height="40" as="geometry" />
        </mxCell>
        <mxCell id="-KuMpNJdJ7WEaTeVx7aB-15" value="Historial" style="rounded=0;whiteSpace=wrap;html=1;" parent="WIyWlLk6GJQsqaUBKTNV-1" vertex="1">
          <mxGeometry x="420" y="1235" width="160" height="40" as="geometry" />
        </mxCell>
        <mxCell id="-KuMpNJdJ7WEaTeVx7aB-16" style="edgeStyle=orthogonalEdgeStyle;rounded=0;orthogonalLoop=1;jettySize=auto;html=1;endArrow=classic;endFill=1;" parent="WIyWlLk6GJQsqaUBKTNV-1" source="-KuMpNJdJ7WEaTeVx7aB-17" edge="1">
          <mxGeometry relative="1" as="geometry">
            <mxPoint x="310.0000000000002" y="925" as="targetPoint" />
          </mxGeometry>
        </mxCell>
        <mxCell id="-KuMpNJdJ7WEaTeVx7aB-17" value="categorizar" style="text;html=1;align=center;verticalAlign=middle;resizable=0;points=[];autosize=1;strokeColor=none;fillColor=none;" parent="WIyWlLk6GJQsqaUBKTNV-1" vertex="1">
          <mxGeometry x="190" y="910" width="80" height="30" as="geometry" />
        </mxCell>
        <mxCell id="-KuMpNJdJ7WEaTeVx7aB-18" style="edgeStyle=orthogonalEdgeStyle;rounded=0;orthogonalLoop=1;jettySize=auto;html=1;endArrow=classic;endFill=1;" parent="WIyWlLk6GJQsqaUBKTNV-1" source="-KuMpNJdJ7WEaTeVx7aB-19" edge="1">
          <mxGeometry relative="1" as="geometry">
            <mxPoint x="160" y="905" as="targetPoint" />
          </mxGeometry>
        </mxCell>
        <mxCell id="-KuMpNJdJ7WEaTeVx7aB-19" value="clasificado" style="text;html=1;align=center;verticalAlign=middle;resizable=0;points=[];autosize=1;strokeColor=none;fillColor=none;" parent="WIyWlLk6GJQsqaUBKTNV-1" vertex="1">
          <mxGeometry x="190" y="890" width="80" height="30" as="geometry" />
        </mxCell>
        <mxCell id="-KuMpNJdJ7WEaTeVx7aB-20" value="1" style="text;html=1;align=center;verticalAlign=middle;resizable=0;points=[];autosize=1;strokeColor=none;fillColor=none;" parent="WIyWlLk6GJQsqaUBKTNV-1" vertex="1">
          <mxGeometry x="135" y="1010" width="30" height="30" as="geometry" />
        </mxCell>
        <mxCell id="-KuMpNJdJ7WEaTeVx7aB-21" value="1...*" style="text;html=1;align=center;verticalAlign=middle;resizable=0;points=[];autosize=1;strokeColor=none;fillColor=none;" parent="WIyWlLk6GJQsqaUBKTNV-1" vertex="1">
          <mxGeometry x="394" y="835" width="40" height="30" as="geometry" />
        </mxCell>
        <mxCell id="-KuMpNJdJ7WEaTeVx7aB-22" style="edgeStyle=orthogonalEdgeStyle;rounded=0;orthogonalLoop=1;jettySize=auto;html=1;endArrow=classic;endFill=1;" parent="WIyWlLk6GJQsqaUBKTNV-1" source="-KuMpNJdJ7WEaTeVx7aB-23" edge="1">
          <mxGeometry relative="1" as="geometry">
            <mxPoint x="220" y="805" as="targetPoint" />
          </mxGeometry>
        </mxCell>
        <mxCell id="-KuMpNJdJ7WEaTeVx7aB-23" value="selecciona" style="text;html=1;align=center;verticalAlign=middle;resizable=0;points=[];autosize=1;strokeColor=none;fillColor=none;" parent="WIyWlLk6GJQsqaUBKTNV-1" vertex="1">
          <mxGeometry x="260" y="790" width="80" height="30" as="geometry" />
        </mxCell>
        <mxCell id="-KuMpNJdJ7WEaTeVx7aB-24" style="edgeStyle=orthogonalEdgeStyle;rounded=0;orthogonalLoop=1;jettySize=auto;html=1;endArrow=classic;endFill=1;" parent="WIyWlLk6GJQsqaUBKTNV-1" source="-KuMpNJdJ7WEaTeVx7aB-25" edge="1">
          <mxGeometry relative="1" as="geometry">
            <mxPoint x="370.0000000000002" y="829" as="targetPoint" />
          </mxGeometry>
        </mxCell>
        <mxCell id="-KuMpNJdJ7WEaTeVx7aB-25" value="clasificado" style="text;html=1;align=center;verticalAlign=middle;resizable=0;points=[];autosize=1;strokeColor=none;fillColor=none;" parent="WIyWlLk6GJQsqaUBKTNV-1" vertex="1">
          <mxGeometry x="260" y="814" width="80" height="30" as="geometry" />
        </mxCell>
        <mxCell id="-KuMpNJdJ7WEaTeVx7aB-26" style="edgeStyle=orthogonalEdgeStyle;rounded=0;orthogonalLoop=1;jettySize=auto;html=1;endArrow=classic;endFill=1;" parent="WIyWlLk6GJQsqaUBKTNV-1" source="-KuMpNJdJ7WEaTeVx7aB-27" edge="1">
          <mxGeometry relative="1" as="geometry">
            <mxPoint x="420.0000000000002" y="945" as="targetPoint" />
          </mxGeometry>
        </mxCell>
        <mxCell id="-KuMpNJdJ7WEaTeVx7aB-27" value="traslada" style="text;html=1;align=center;verticalAlign=middle;resizable=0;points=[];autosize=1;strokeColor=none;fillColor=none;" parent="WIyWlLk6GJQsqaUBKTNV-1" vertex="1">
          <mxGeometry x="462" y="930" width="70" height="30" as="geometry" />
        </mxCell>
        <mxCell id="-KuMpNJdJ7WEaTeVx7aB-28" style="edgeStyle=orthogonalEdgeStyle;rounded=0;orthogonalLoop=1;jettySize=auto;html=1;endArrow=classic;endFill=1;" parent="WIyWlLk6GJQsqaUBKTNV-1" source="-KuMpNJdJ7WEaTeVx7aB-29" edge="1">
          <mxGeometry relative="1" as="geometry">
            <mxPoint x="560.0000000000002" y="965" as="targetPoint" />
          </mxGeometry>
        </mxCell>
        <mxCell id="-KuMpNJdJ7WEaTeVx7aB-29" value="rotar" style="text;html=1;align=center;verticalAlign=middle;resizable=0;points=[];autosize=1;strokeColor=none;fillColor=none;" parent="WIyWlLk6GJQsqaUBKTNV-1" vertex="1">
          <mxGeometry x="475" y="950" width="50" height="30" as="geometry" />
        </mxCell>
        <mxCell id="-KuMpNJdJ7WEaTeVx7aB-30" style="edgeStyle=orthogonalEdgeStyle;rounded=0;orthogonalLoop=1;jettySize=auto;html=1;endArrow=classic;endFill=1;" parent="WIyWlLk6GJQsqaUBKTNV-1" source="-KuMpNJdJ7WEaTeVx7aB-31" target="-KuMpNJdJ7WEaTeVx7aB-52" edge="1">
          <mxGeometry relative="1" as="geometry" />
        </mxCell>
        <mxCell id="-KuMpNJdJ7WEaTeVx7aB-31" value="Entran" style="text;html=1;align=center;verticalAlign=middle;resizable=0;points=[];autosize=1;strokeColor=none;fillColor=none;" parent="WIyWlLk6GJQsqaUBKTNV-1" vertex="1">
          <mxGeometry x="650" y="1030" width="60" height="30" as="geometry" />
        </mxCell>
        <mxCell id="-KuMpNJdJ7WEaTeVx7aB-32" style="edgeStyle=orthogonalEdgeStyle;rounded=0;orthogonalLoop=1;jettySize=auto;html=1;endArrow=classic;endFill=1;" parent="WIyWlLk6GJQsqaUBKTNV-1" source="-KuMpNJdJ7WEaTeVx7aB-33" edge="1">
          <mxGeometry relative="1" as="geometry">
            <mxPoint x="760" y="1069" as="targetPoint" />
          </mxGeometry>
        </mxCell>
        <mxCell id="-KuMpNJdJ7WEaTeVx7aB-33" value="Piden" style="text;html=1;align=center;verticalAlign=middle;resizable=0;points=[];autosize=1;strokeColor=none;fillColor=none;" parent="WIyWlLk6GJQsqaUBKTNV-1" vertex="1">
          <mxGeometry x="655" y="1054" width="50" height="30" as="geometry" />
        </mxCell>
        <mxCell id="-KuMpNJdJ7WEaTeVx7aB-34" style="edgeStyle=orthogonalEdgeStyle;rounded=0;orthogonalLoop=1;jettySize=auto;html=1;endArrow=classic;endFill=1;" parent="WIyWlLk6GJQsqaUBKTNV-1" source="-KuMpNJdJ7WEaTeVx7aB-35" edge="1">
          <mxGeometry relative="1" as="geometry">
            <mxPoint x="640" y="805" as="targetPoint" />
          </mxGeometry>
        </mxCell>
        <mxCell id="-KuMpNJdJ7WEaTeVx7aB-35" value="maneja" style="text;html=1;align=center;verticalAlign=middle;resizable=0;points=[];autosize=1;strokeColor=none;fillColor=none;" parent="WIyWlLk6GJQsqaUBKTNV-1" vertex="1">
          <mxGeometry x="680" y="790" width="60" height="30" as="geometry" />
        </mxCell>
        <mxCell id="-KuMpNJdJ7WEaTeVx7aB-36" style="edgeStyle=orthogonalEdgeStyle;rounded=0;orthogonalLoop=1;jettySize=auto;html=1;endArrow=classic;endFill=1;entryX=0.04;entryY=0.567;entryDx=0;entryDy=0;entryPerimeter=0;" parent="WIyWlLk6GJQsqaUBKTNV-1" source="-KuMpNJdJ7WEaTeVx7aB-37" target="-KuMpNJdJ7WEaTeVx7aB-39" edge="1">
          <mxGeometry relative="1" as="geometry" />
        </mxCell>
        <mxCell id="-KuMpNJdJ7WEaTeVx7aB-37" value="es manejado&lt;br&gt;" style="text;html=1;align=center;verticalAlign=middle;resizable=0;points=[];autosize=1;strokeColor=none;fillColor=none;" parent="WIyWlLk6GJQsqaUBKTNV-1" vertex="1">
          <mxGeometry x="650" y="814" width="90" height="30" as="geometry" />
        </mxCell>
        <mxCell id="-KuMpNJdJ7WEaTeVx7aB-38" value="0...*" style="text;html=1;align=center;verticalAlign=middle;resizable=0;points=[];autosize=1;strokeColor=none;fillColor=none;" parent="WIyWlLk6GJQsqaUBKTNV-1" vertex="1">
          <mxGeometry x="574" y="790" width="40" height="30" as="geometry" />
        </mxCell>
        <mxCell id="-KuMpNJdJ7WEaTeVx7aB-39" value="1....*" style="text;html=1;align=center;verticalAlign=middle;resizable=0;points=[];autosize=1;strokeColor=none;fillColor=none;" parent="WIyWlLk6GJQsqaUBKTNV-1" vertex="1">
          <mxGeometry x="774" y="810" width="50" height="30" as="geometry" />
        </mxCell>
        <mxCell id="-KuMpNJdJ7WEaTeVx7aB-40" style="edgeStyle=orthogonalEdgeStyle;rounded=0;orthogonalLoop=1;jettySize=auto;html=1;endArrow=classic;endFill=1;" parent="WIyWlLk6GJQsqaUBKTNV-1" source="-KuMpNJdJ7WEaTeVx7aB-41" target="-KuMpNJdJ7WEaTeVx7aB-44" edge="1">
          <mxGeometry relative="1" as="geometry" />
        </mxCell>
        <mxCell id="-KuMpNJdJ7WEaTeVx7aB-41" value="pertenece" style="text;html=1;align=center;verticalAlign=middle;resizable=0;points=[];autosize=1;strokeColor=none;fillColor=none;" parent="WIyWlLk6GJQsqaUBKTNV-1" vertex="1">
          <mxGeometry x="1030" y="790" width="80" height="30" as="geometry" />
        </mxCell>
        <mxCell id="-KuMpNJdJ7WEaTeVx7aB-42" style="edgeStyle=orthogonalEdgeStyle;rounded=0;orthogonalLoop=1;jettySize=auto;html=1;endArrow=classic;endFill=1;" parent="WIyWlLk6GJQsqaUBKTNV-1" source="-KuMpNJdJ7WEaTeVx7aB-43" edge="1">
          <mxGeometry relative="1" as="geometry">
            <mxPoint x="1130" y="825" as="targetPoint" />
          </mxGeometry>
        </mxCell>
        <mxCell id="-KuMpNJdJ7WEaTeVx7aB-43" value="es" style="text;html=1;align=center;verticalAlign=middle;resizable=0;points=[];autosize=1;strokeColor=none;fillColor=none;" parent="WIyWlLk6GJQsqaUBKTNV-1" vertex="1">
          <mxGeometry x="1050" y="810" width="40" height="30" as="geometry" />
        </mxCell>
        <mxCell id="-KuMpNJdJ7WEaTeVx7aB-44" value="1" style="text;html=1;align=center;verticalAlign=middle;resizable=0;points=[];autosize=1;strokeColor=none;fillColor=none;" parent="WIyWlLk6GJQsqaUBKTNV-1" vertex="1">
          <mxGeometry x="975" y="790" width="30" height="30" as="geometry" />
        </mxCell>
        <mxCell id="-KuMpNJdJ7WEaTeVx7aB-45" value="1" style="text;html=1;align=center;verticalAlign=middle;resizable=0;points=[];autosize=1;strokeColor=none;fillColor=none;" parent="WIyWlLk6GJQsqaUBKTNV-1" vertex="1">
          <mxGeometry x="1145" y="810" width="30" height="30" as="geometry" />
        </mxCell>
        <mxCell id="-KuMpNJdJ7WEaTeVx7aB-46" style="edgeStyle=orthogonalEdgeStyle;rounded=0;orthogonalLoop=1;jettySize=auto;html=1;endArrow=classic;endFill=1;" parent="WIyWlLk6GJQsqaUBKTNV-1" source="-KuMpNJdJ7WEaTeVx7aB-47" edge="1">
          <mxGeometry relative="1" as="geometry">
            <mxPoint x="920" y="875" as="targetPoint" />
          </mxGeometry>
        </mxCell>
        <mxCell id="-KuMpNJdJ7WEaTeVx7aB-47" value="hace" style="text;html=1;align=center;verticalAlign=middle;resizable=0;points=[];autosize=1;strokeColor=none;fillColor=none;" parent="WIyWlLk6GJQsqaUBKTNV-1" vertex="1">
          <mxGeometry x="895" y="920" width="50" height="30" as="geometry" />
        </mxCell>
        <mxCell id="-KuMpNJdJ7WEaTeVx7aB-48" style="edgeStyle=orthogonalEdgeStyle;rounded=0;orthogonalLoop=1;jettySize=auto;html=1;endArrow=classic;endFill=1;" parent="WIyWlLk6GJQsqaUBKTNV-1" source="-KuMpNJdJ7WEaTeVx7aB-49" edge="1">
          <mxGeometry relative="1" as="geometry">
            <mxPoint x="876" y="995" as="targetPoint" />
          </mxGeometry>
        </mxCell>
        <mxCell id="-KuMpNJdJ7WEaTeVx7aB-49" value="realizado" style="text;html=1;align=center;verticalAlign=middle;resizable=0;points=[];autosize=1;strokeColor=none;fillColor=none;" parent="WIyWlLk6GJQsqaUBKTNV-1" vertex="1">
          <mxGeometry x="841" y="920" width="70" height="30" as="geometry" />
        </mxCell>
        <mxCell id="-KuMpNJdJ7WEaTeVx7aB-50" value="2" style="text;html=1;align=center;verticalAlign=middle;resizable=0;points=[];autosize=1;strokeColor=none;fillColor=none;" parent="WIyWlLk6GJQsqaUBKTNV-1" vertex="1">
          <mxGeometry x="875" y="830" width="30" height="30" as="geometry" />
        </mxCell>
        <mxCell id="-KuMpNJdJ7WEaTeVx7aB-51" value="0...*" style="text;html=1;align=center;verticalAlign=middle;resizable=0;points=[];autosize=1;strokeColor=none;fillColor=none;" parent="WIyWlLk6GJQsqaUBKTNV-1" vertex="1">
          <mxGeometry x="894" y="1010" width="40" height="30" as="geometry" />
        </mxCell>
        <mxCell id="-KuMpNJdJ7WEaTeVx7aB-52" value="1...*" style="text;html=1;align=center;verticalAlign=middle;resizable=0;points=[];autosize=1;strokeColor=none;fillColor=none;" parent="WIyWlLk6GJQsqaUBKTNV-1" vertex="1">
          <mxGeometry x="580" y="1030" width="40" height="30" as="geometry" />
        </mxCell>
        <mxCell id="-KuMpNJdJ7WEaTeVx7aB-53" value="1...*" style="text;html=1;align=center;verticalAlign=middle;resizable=0;points=[];autosize=1;strokeColor=none;fillColor=none;" parent="WIyWlLk6GJQsqaUBKTNV-1" vertex="1">
          <mxGeometry x="784" y="1054" width="40" height="30" as="geometry" />
        </mxCell>
        <mxCell id="-KuMpNJdJ7WEaTeVx7aB-54" value="1...*" style="text;html=1;align=center;verticalAlign=middle;resizable=0;points=[];autosize=1;strokeColor=none;fillColor=none;" parent="WIyWlLk6GJQsqaUBKTNV-1" vertex="1">
          <mxGeometry x="490" y="1210" width="40" height="30" as="geometry" />
        </mxCell>
        <mxCell id="-KuMpNJdJ7WEaTeVx7aB-55" value="1" style="text;html=1;align=center;verticalAlign=middle;resizable=0;points=[];autosize=1;strokeColor=none;fillColor=none;" parent="WIyWlLk6GJQsqaUBKTNV-1" vertex="1">
          <mxGeometry x="465" y="1070" width="30" height="30" as="geometry" />
        </mxCell>
        <mxCell id="-KuMpNJdJ7WEaTeVx7aB-56" style="edgeStyle=orthogonalEdgeStyle;rounded=0;orthogonalLoop=1;jettySize=auto;html=1;endArrow=classic;endFill=1;" parent="WIyWlLk6GJQsqaUBKTNV-1" source="-KuMpNJdJ7WEaTeVx7aB-57" edge="1">
          <mxGeometry relative="1" as="geometry">
            <mxPoint x="530.0000000000002" y="1105" as="targetPoint" />
          </mxGeometry>
        </mxCell>
        <mxCell id="-KuMpNJdJ7WEaTeVx7aB-57" value="guarda" style="text;html=1;align=center;verticalAlign=middle;resizable=0;points=[];autosize=1;strokeColor=none;fillColor=none;" parent="WIyWlLk6GJQsqaUBKTNV-1" vertex="1">
          <mxGeometry x="500" y="1135" width="60" height="30" as="geometry" />
        </mxCell>
        <mxCell id="-KuMpNJdJ7WEaTeVx7aB-58" style="edgeStyle=orthogonalEdgeStyle;rounded=0;orthogonalLoop=1;jettySize=auto;html=1;endArrow=classic;endFill=1;" parent="WIyWlLk6GJQsqaUBKTNV-1" source="-KuMpNJdJ7WEaTeVx7aB-59" edge="1">
          <mxGeometry relative="1" as="geometry">
            <mxPoint x="470.0000000000002" y="1205" as="targetPoint" />
          </mxGeometry>
        </mxCell>
        <mxCell id="-KuMpNJdJ7WEaTeVx7aB-59" value="informa" style="text;html=1;align=center;verticalAlign=middle;resizable=0;points=[];autosize=1;strokeColor=none;fillColor=none;" parent="WIyWlLk6GJQsqaUBKTNV-1" vertex="1">
          <mxGeometry x="440" y="1135" width="60" height="30" as="geometry" />
        </mxCell>
        <mxCell id="-KuMpNJdJ7WEaTeVx7aB-60" value="1...*" style="text;html=1;align=center;verticalAlign=middle;resizable=0;points=[];autosize=1;strokeColor=none;fillColor=none;" parent="WIyWlLk6GJQsqaUBKTNV-1" vertex="1">
          <mxGeometry x="170" y="790" width="40" height="30" as="geometry" />
        </mxCell>
        <mxCell id="FrrXkEWVm4gh1E0Oda3U-0" style="edgeStyle=orthogonalEdgeStyle;rounded=0;orthogonalLoop=1;jettySize=auto;html=1;entryX=0.5;entryY=1.25;entryDx=0;entryDy=0;entryPerimeter=0;dashed=1;" parent="WIyWlLk6GJQsqaUBKTNV-1" source="-KuMpNJdJ7WEaTeVx7aB-62" target="-KuMpNJdJ7WEaTeVx7aB-78" edge="1">
          <mxGeometry relative="1" as="geometry">
            <Array as="points">
              <mxPoint x="215" y="350" />
            </Array>
          </mxGeometry>
        </mxCell>
        <mxCell id="FrrXkEWVm4gh1E0Oda3U-1" style="edgeStyle=orthogonalEdgeStyle;rounded=0;orthogonalLoop=1;jettySize=auto;html=1;entryX=0.563;entryY=0.875;entryDx=0;entryDy=0;entryPerimeter=0;dashed=1;" parent="WIyWlLk6GJQsqaUBKTNV-1" source="-KuMpNJdJ7WEaTeVx7aB-62" target="M_nrPv68LQVrj1rYmoWH-5" edge="1">
          <mxGeometry relative="1" as="geometry">
            <Array as="points">
              <mxPoint x="610" y="349" />
            </Array>
          </mxGeometry>
        </mxCell>
        <mxCell id="-KuMpNJdJ7WEaTeVx7aB-62" value="Usuario" style="swimlane;fontStyle=2;align=center;verticalAlign=top;childLayout=stackLayout;horizontal=1;startSize=26;horizontalStack=0;resizeParent=1;resizeLast=0;collapsible=1;marginBottom=0;rounded=0;shadow=0;strokeWidth=1;" parent="WIyWlLk6GJQsqaUBKTNV-1" vertex="1">
          <mxGeometry x="320" y="280" width="160" height="138" as="geometry">
            <mxRectangle x="230" y="140" width="160" height="26" as="alternateBounds" />
          </mxGeometry>
        </mxCell>
        <mxCell id="-KuMpNJdJ7WEaTeVx7aB-63" value="Codigo" style="text;align=left;verticalAlign=top;spacingLeft=4;spacingRight=4;overflow=hidden;rotatable=0;points=[[0,0.5],[1,0.5]];portConstraint=eastwest;" parent="-KuMpNJdJ7WEaTeVx7aB-62" vertex="1">
          <mxGeometry y="26" width="160" height="26" as="geometry" />
        </mxCell>
        <mxCell id="-KuMpNJdJ7WEaTeVx7aB-64" value="Nombre: String" style="text;align=left;verticalAlign=top;spacingLeft=4;spacingRight=4;overflow=hidden;rotatable=0;points=[[0,0.5],[1,0.5]];portConstraint=eastwest;" parent="-KuMpNJdJ7WEaTeVx7aB-62" vertex="1">
          <mxGeometry y="52" width="160" height="26" as="geometry" />
        </mxCell>
        <mxCell id="doakBsPh-R9lay9GGXW2-1" value="Cargo: String" style="text;align=left;verticalAlign=top;spacingLeft=4;spacingRight=4;overflow=hidden;rotatable=0;points=[[0,0.5],[1,0.5]];portConstraint=eastwest;" parent="-KuMpNJdJ7WEaTeVx7aB-62" vertex="1">
          <mxGeometry y="78" width="160" height="26" as="geometry" />
        </mxCell>
        <mxCell id="-KuMpNJdJ7WEaTeVx7aB-66" value="" style="line;html=1;strokeWidth=1;align=left;verticalAlign=middle;spacingTop=-1;spacingLeft=3;spacingRight=3;rotatable=0;labelPosition=right;points=[];portConstraint=eastwest;" parent="-KuMpNJdJ7WEaTeVx7aB-62" vertex="1">
          <mxGeometry y="104" width="160" height="8" as="geometry" />
        </mxCell>
        <mxCell id="FrrXkEWVm4gh1E0Oda3U-3" style="edgeStyle=orthogonalEdgeStyle;rounded=0;orthogonalLoop=1;jettySize=auto;html=1;endArrow=diamondThin;endFill=0;endSize=11;" parent="WIyWlLk6GJQsqaUBKTNV-1" source="-KuMpNJdJ7WEaTeVx7aB-67" target="zkfFHV4jXpPFQw0GAbJ--1" edge="1">
          <mxGeometry relative="1" as="geometry">
            <Array as="points">
              <mxPoint x="1080" y="-495" />
              <mxPoint x="1080" y="-495" />
            </Array>
          </mxGeometry>
        </mxCell>
        <mxCell id="FrrXkEWVm4gh1E0Oda3U-4" style="edgeStyle=orthogonalEdgeStyle;rounded=0;orthogonalLoop=1;jettySize=auto;html=1;entryX=0.5;entryY=0;entryDx=0;entryDy=0;endArrow=diamondThin;endFill=1;endSize=11;" parent="WIyWlLk6GJQsqaUBKTNV-1" source="-KuMpNJdJ7WEaTeVx7aB-67" target="M_nrPv68LQVrj1rYmoWH-0" edge="1">
          <mxGeometry relative="1" as="geometry" />
        </mxCell>
        <mxCell id="LgvfmR9-56JRPEU1bEDX-0" style="edgeStyle=orthogonalEdgeStyle;rounded=0;orthogonalLoop=1;jettySize=auto;html=1;endArrow=none;endFill=0;" parent="WIyWlLk6GJQsqaUBKTNV-1" source="-KuMpNJdJ7WEaTeVx7aB-67" target="-KuMpNJdJ7WEaTeVx7aB-79" edge="1">
          <mxGeometry relative="1" as="geometry">
            <Array as="points">
              <mxPoint x="870" y="-420" />
              <mxPoint x="870" y="-230" />
              <mxPoint x="1180" y="-230" />
            </Array>
          </mxGeometry>
        </mxCell>
        <mxCell id="LgvfmR9-56JRPEU1bEDX-12" style="edgeStyle=orthogonalEdgeStyle;rounded=0;orthogonalLoop=1;jettySize=auto;html=1;endArrow=diamondThin;endFill=0;startSize=10;endSize=10;" parent="WIyWlLk6GJQsqaUBKTNV-1" source="-KuMpNJdJ7WEaTeVx7aB-67" target="LgvfmR9-56JRPEU1bEDX-6" edge="1">
          <mxGeometry relative="1" as="geometry">
            <Array as="points">
              <mxPoint x="290" y="-460" />
              <mxPoint x="290" y="-589" />
            </Array>
          </mxGeometry>
        </mxCell>
        <mxCell id="-KuMpNJdJ7WEaTeVx7aB-67" value="Producto" style="swimlane;fontStyle=2;align=center;verticalAlign=top;childLayout=stackLayout;horizontal=1;startSize=26;horizontalStack=0;resizeParent=1;resizeLast=0;collapsible=1;marginBottom=0;rounded=0;shadow=0;strokeWidth=1;" parent="WIyWlLk6GJQsqaUBKTNV-1" vertex="1">
          <mxGeometry x="520" y="-520" width="160" height="242" as="geometry">
            <mxRectangle x="230" y="140" width="160" height="26" as="alternateBounds" />
          </mxGeometry>
        </mxCell>
        <mxCell id="-KuMpNJdJ7WEaTeVx7aB-68" value="Codigo" style="text;align=left;verticalAlign=top;spacingLeft=4;spacingRight=4;overflow=hidden;rotatable=0;points=[[0,0.5],[1,0.5]];portConstraint=eastwest;" parent="-KuMpNJdJ7WEaTeVx7aB-67" vertex="1">
          <mxGeometry y="26" width="160" height="26" as="geometry" />
        </mxCell>
        <mxCell id="-KuMpNJdJ7WEaTeVx7aB-69" value="Nombre: String" style="text;align=left;verticalAlign=top;spacingLeft=4;spacingRight=4;overflow=hidden;rotatable=0;points=[[0,0.5],[1,0.5]];portConstraint=eastwest;" parent="-KuMpNJdJ7WEaTeVx7aB-67" vertex="1">
          <mxGeometry y="52" width="160" height="26" as="geometry" />
        </mxCell>
        <mxCell id="LgvfmR9-56JRPEU1bEDX-3" value="Tipo Unidad" style="text;align=left;verticalAlign=top;spacingLeft=4;spacingRight=4;overflow=hidden;rotatable=0;points=[[0,0.5],[1,0.5]];portConstraint=eastwest;" parent="-KuMpNJdJ7WEaTeVx7aB-67" vertex="1">
          <mxGeometry y="78" width="160" height="26" as="geometry" />
        </mxCell>
        <mxCell id="LgvfmR9-56JRPEU1bEDX-2" value="Nombre: String" style="text;align=left;verticalAlign=top;spacingLeft=4;spacingRight=4;overflow=hidden;rotatable=0;points=[[0,0.5],[1,0.5]];portConstraint=eastwest;" parent="-KuMpNJdJ7WEaTeVx7aB-67" vertex="1">
          <mxGeometry y="104" width="160" height="26" as="geometry" />
        </mxCell>
        <mxCell id="-KuMpNJdJ7WEaTeVx7aB-72" value="Cantidad" style="text;align=left;verticalAlign=top;spacingLeft=4;spacingRight=4;overflow=hidden;rotatable=0;points=[[0,0.5],[1,0.5]];portConstraint=eastwest;rounded=0;shadow=0;html=0;" parent="-KuMpNJdJ7WEaTeVx7aB-67" vertex="1">
          <mxGeometry y="130" width="160" height="26" as="geometry" />
        </mxCell>
        <mxCell id="LgvfmR9-56JRPEU1bEDX-4" value="Unidad de medida: String" style="text;align=left;verticalAlign=top;spacingLeft=4;spacingRight=4;overflow=hidden;rotatable=0;points=[[0,0.5],[1,0.5]];portConstraint=eastwest;" parent="-KuMpNJdJ7WEaTeVx7aB-67" vertex="1">
          <mxGeometry y="156" width="160" height="26" as="geometry" />
        </mxCell>
        <mxCell id="LgvfmR9-56JRPEU1bEDX-5" value="Cuidados: String" style="text;align=left;verticalAlign=top;spacingLeft=4;spacingRight=4;overflow=hidden;rotatable=0;points=[[0,0.5],[1,0.5]];portConstraint=eastwest;" parent="-KuMpNJdJ7WEaTeVx7aB-67" vertex="1">
          <mxGeometry y="182" width="160" height="26" as="geometry" />
        </mxCell>
        <mxCell id="-KuMpNJdJ7WEaTeVx7aB-70" value="Descripcion: String" style="text;align=left;verticalAlign=top;spacingLeft=4;spacingRight=4;overflow=hidden;rotatable=0;points=[[0,0.5],[1,0.5]];portConstraint=eastwest;rounded=0;shadow=0;html=0;" parent="-KuMpNJdJ7WEaTeVx7aB-67" vertex="1">
          <mxGeometry y="208" width="160" height="26" as="geometry" />
        </mxCell>
        <mxCell id="-KuMpNJdJ7WEaTeVx7aB-71" value="" style="line;html=1;strokeWidth=1;align=left;verticalAlign=middle;spacingTop=-1;spacingLeft=3;spacingRight=3;rotatable=0;labelPosition=right;points=[];portConstraint=eastwest;" parent="-KuMpNJdJ7WEaTeVx7aB-67" vertex="1">
          <mxGeometry y="234" width="160" height="8" as="geometry" />
        </mxCell>
        <mxCell id="FrrXkEWVm4gh1E0Oda3U-6" style="edgeStyle=orthogonalEdgeStyle;rounded=0;orthogonalLoop=1;jettySize=auto;html=1;endArrow=diamondThin;endFill=1;endSize=11;" parent="WIyWlLk6GJQsqaUBKTNV-1" source="-KuMpNJdJ7WEaTeVx7aB-73" target="-KuMpNJdJ7WEaTeVx7aB-67" edge="1">
          <mxGeometry relative="1" as="geometry">
            <Array as="points">
              <mxPoint x="220" y="-320" />
            </Array>
          </mxGeometry>
        </mxCell>
        <mxCell id="-KuMpNJdJ7WEaTeVx7aB-73" value="Salida" style="swimlane;fontStyle=2;align=center;verticalAlign=top;childLayout=stackLayout;horizontal=1;startSize=26;horizontalStack=0;resizeParent=1;resizeLast=0;collapsible=1;marginBottom=0;rounded=0;shadow=0;strokeWidth=1;" parent="WIyWlLk6GJQsqaUBKTNV-1" vertex="1">
          <mxGeometry x="135" y="-40" width="160" height="138" as="geometry">
            <mxRectangle x="230" y="140" width="160" height="26" as="alternateBounds" />
          </mxGeometry>
        </mxCell>
        <mxCell id="-KuMpNJdJ7WEaTeVx7aB-74" value="Codigo" style="text;align=left;verticalAlign=top;spacingLeft=4;spacingRight=4;overflow=hidden;rotatable=0;points=[[0,0.5],[1,0.5]];portConstraint=eastwest;" parent="-KuMpNJdJ7WEaTeVx7aB-73" vertex="1">
          <mxGeometry y="26" width="160" height="26" as="geometry" />
        </mxCell>
        <mxCell id="-KuMpNJdJ7WEaTeVx7aB-76" value="Descripcion: String" style="text;align=left;verticalAlign=top;spacingLeft=4;spacingRight=4;overflow=hidden;rotatable=0;points=[[0,0.5],[1,0.5]];portConstraint=eastwest;rounded=0;shadow=0;html=0;" parent="-KuMpNJdJ7WEaTeVx7aB-73" vertex="1">
          <mxGeometry y="52" width="160" height="26" as="geometry" />
        </mxCell>
        <mxCell id="-KuMpNJdJ7WEaTeVx7aB-77" value="Cantidad" style="text;align=left;verticalAlign=top;spacingLeft=4;spacingRight=4;overflow=hidden;rotatable=0;points=[[0,0.5],[1,0.5]];portConstraint=eastwest;rounded=0;shadow=0;html=0;" parent="-KuMpNJdJ7WEaTeVx7aB-73" vertex="1">
          <mxGeometry y="78" width="160" height="26" as="geometry" />
        </mxCell>
        <mxCell id="doakBsPh-R9lay9GGXW2-0" value="Fecha" style="text;align=left;verticalAlign=top;spacingLeft=4;spacingRight=4;overflow=hidden;rotatable=0;points=[[0,0.5],[1,0.5]];portConstraint=eastwest;" parent="-KuMpNJdJ7WEaTeVx7aB-73" vertex="1">
          <mxGeometry y="104" width="160" height="26" as="geometry" />
        </mxCell>
        <mxCell id="-KuMpNJdJ7WEaTeVx7aB-78" value="" style="line;html=1;strokeWidth=1;align=left;verticalAlign=middle;spacingTop=-1;spacingLeft=3;spacingRight=3;rotatable=0;labelPosition=right;points=[];portConstraint=eastwest;" parent="-KuMpNJdJ7WEaTeVx7aB-73" vertex="1">
          <mxGeometry y="130" width="160" height="8" as="geometry" />
        </mxCell>
        <mxCell id="-KuMpNJdJ7WEaTeVx7aB-79" value="Pedido" style="swimlane;fontStyle=2;align=center;verticalAlign=top;childLayout=stackLayout;horizontal=1;startSize=26;horizontalStack=0;resizeParent=1;resizeLast=0;collapsible=1;marginBottom=0;rounded=0;shadow=0;strokeWidth=1;" parent="WIyWlLk6GJQsqaUBKTNV-1" vertex="1">
          <mxGeometry x="1161" y="-43" width="160" height="138" as="geometry">
            <mxRectangle x="230" y="140" width="160" height="26" as="alternateBounds" />
          </mxGeometry>
        </mxCell>
        <mxCell id="-KuMpNJdJ7WEaTeVx7aB-80" value="Codigo" style="text;align=left;verticalAlign=top;spacingLeft=4;spacingRight=4;overflow=hidden;rotatable=0;points=[[0,0.5],[1,0.5]];portConstraint=eastwest;" parent="-KuMpNJdJ7WEaTeVx7aB-79" vertex="1">
          <mxGeometry y="26" width="160" height="26" as="geometry" />
        </mxCell>
        <mxCell id="-KuMpNJdJ7WEaTeVx7aB-81" value="Nombre: String" style="text;align=left;verticalAlign=top;spacingLeft=4;spacingRight=4;overflow=hidden;rotatable=0;points=[[0,0.5],[1,0.5]];portConstraint=eastwest;" parent="-KuMpNJdJ7WEaTeVx7aB-79" vertex="1">
          <mxGeometry y="52" width="160" height="26" as="geometry" />
        </mxCell>
        <mxCell id="-KuMpNJdJ7WEaTeVx7aB-82" value="Descripcion: String" style="text;align=left;verticalAlign=top;spacingLeft=4;spacingRight=4;overflow=hidden;rotatable=0;points=[[0,0.5],[1,0.5]];portConstraint=eastwest;rounded=0;shadow=0;html=0;" parent="-KuMpNJdJ7WEaTeVx7aB-79" vertex="1">
          <mxGeometry y="78" width="160" height="26" as="geometry" />
        </mxCell>
        <mxCell id="-KuMpNJdJ7WEaTeVx7aB-83" value="Cantidad" style="text;align=left;verticalAlign=top;spacingLeft=4;spacingRight=4;overflow=hidden;rotatable=0;points=[[0,0.5],[1,0.5]];portConstraint=eastwest;rounded=0;shadow=0;html=0;" parent="-KuMpNJdJ7WEaTeVx7aB-79" vertex="1">
          <mxGeometry y="104" width="160" height="26" as="geometry" />
        </mxCell>
        <mxCell id="-KuMpNJdJ7WEaTeVx7aB-84" value="" style="line;html=1;strokeWidth=1;align=left;verticalAlign=middle;spacingTop=-1;spacingLeft=3;spacingRight=3;rotatable=0;labelPosition=right;points=[];portConstraint=eastwest;" parent="-KuMpNJdJ7WEaTeVx7aB-79" vertex="1">
          <mxGeometry y="130" width="160" height="8" as="geometry" />
        </mxCell>
        <mxCell id="LgvfmR9-56JRPEU1bEDX-15" style="edgeStyle=orthogonalEdgeStyle;rounded=0;orthogonalLoop=1;jettySize=auto;html=1;endArrow=diamondThin;endFill=1;startSize=10;endSize=10;" parent="WIyWlLk6GJQsqaUBKTNV-1" source="doakBsPh-R9lay9GGXW2-14" target="LgvfmR9-56JRPEU1bEDX-6" edge="1">
          <mxGeometry relative="1" as="geometry" />
        </mxCell>
        <mxCell id="LgvfmR9-56JRPEU1bEDX-25" style="edgeStyle=orthogonalEdgeStyle;rounded=0;orthogonalLoop=1;jettySize=auto;html=1;endArrow=diamondThin;endFill=1;startSize=10;endSize=10;" parent="WIyWlLk6GJQsqaUBKTNV-1" source="doakBsPh-R9lay9GGXW2-14" target="LgvfmR9-56JRPEU1bEDX-17" edge="1">
          <mxGeometry relative="1" as="geometry">
            <Array as="points">
              <mxPoint x="457" y="-958" />
              <mxPoint x="457" y="-960" />
            </Array>
          </mxGeometry>
        </mxCell>
        <mxCell id="doakBsPh-R9lay9GGXW2-14" value="Estanteria&#xa;" style="swimlane;fontStyle=2;align=center;verticalAlign=top;childLayout=stackLayout;horizontal=1;startSize=26;horizontalStack=0;resizeParent=1;resizeLast=0;collapsible=1;marginBottom=0;rounded=0;shadow=0;strokeWidth=1;" parent="WIyWlLk6GJQsqaUBKTNV-1" vertex="1">
          <mxGeometry x="30" y="-1040" width="160" height="164" as="geometry">
            <mxRectangle x="30" y="-1040" width="160" height="26" as="alternateBounds" />
          </mxGeometry>
        </mxCell>
        <mxCell id="doakBsPh-R9lay9GGXW2-15" value="Codigo" style="text;align=left;verticalAlign=top;spacingLeft=4;spacingRight=4;overflow=hidden;rotatable=0;points=[[0,0.5],[1,0.5]];portConstraint=eastwest;" parent="doakBsPh-R9lay9GGXW2-14" vertex="1">
          <mxGeometry y="26" width="160" height="26" as="geometry" />
        </mxCell>
        <mxCell id="doakBsPh-R9lay9GGXW2-16" value="Pasillo: String" style="text;align=left;verticalAlign=top;spacingLeft=4;spacingRight=4;overflow=hidden;rotatable=0;points=[[0,0.5],[1,0.5]];portConstraint=eastwest;" parent="doakBsPh-R9lay9GGXW2-14" vertex="1">
          <mxGeometry y="52" width="160" height="26" as="geometry" />
        </mxCell>
        <mxCell id="doakBsPh-R9lay9GGXW2-18" value="Letra: String" style="text;align=left;verticalAlign=top;spacingLeft=4;spacingRight=4;overflow=hidden;rotatable=0;points=[[0,0.5],[1,0.5]];portConstraint=eastwest;rounded=0;shadow=0;html=0;" parent="doakBsPh-R9lay9GGXW2-14" vertex="1">
          <mxGeometry y="78" width="160" height="26" as="geometry" />
        </mxCell>
        <mxCell id="LgvfmR9-56JRPEU1bEDX-13" value="Numero" style="text;align=left;verticalAlign=top;spacingLeft=4;spacingRight=4;overflow=hidden;rotatable=0;points=[[0,0.5],[1,0.5]];portConstraint=eastwest;rounded=0;shadow=0;html=0;" parent="doakBsPh-R9lay9GGXW2-14" vertex="1">
          <mxGeometry y="104" width="160" height="26" as="geometry" />
        </mxCell>
        <mxCell id="doakBsPh-R9lay9GGXW2-17" value="Descripcion: String" style="text;align=left;verticalAlign=top;spacingLeft=4;spacingRight=4;overflow=hidden;rotatable=0;points=[[0,0.5],[1,0.5]];portConstraint=eastwest;rounded=0;shadow=0;html=0;" parent="doakBsPh-R9lay9GGXW2-14" vertex="1">
          <mxGeometry y="130" width="160" height="26" as="geometry" />
        </mxCell>
        <mxCell id="doakBsPh-R9lay9GGXW2-19" value="" style="line;html=1;strokeWidth=1;align=left;verticalAlign=middle;spacingTop=-1;spacingLeft=3;spacingRight=3;rotatable=0;labelPosition=right;points=[];portConstraint=eastwest;" parent="doakBsPh-R9lay9GGXW2-14" vertex="1">
          <mxGeometry y="156" width="160" height="8" as="geometry" />
        </mxCell>
        <mxCell id="doakBsPh-R9lay9GGXW2-20" value="Tipo Pedido" style="swimlane;fontStyle=2;align=center;verticalAlign=top;childLayout=stackLayout;horizontal=1;startSize=26;horizontalStack=0;resizeParent=1;resizeLast=0;collapsible=1;marginBottom=0;rounded=0;shadow=0;strokeWidth=1;" parent="WIyWlLk6GJQsqaUBKTNV-1" vertex="1">
          <mxGeometry x="800" y="600" width="160" height="138" as="geometry">
            <mxRectangle x="230" y="140" width="160" height="26" as="alternateBounds" />
          </mxGeometry>
        </mxCell>
        <mxCell id="doakBsPh-R9lay9GGXW2-21" value="Codigo" style="text;align=left;verticalAlign=top;spacingLeft=4;spacingRight=4;overflow=hidden;rotatable=0;points=[[0,0.5],[1,0.5]];portConstraint=eastwest;" parent="doakBsPh-R9lay9GGXW2-20" vertex="1">
          <mxGeometry y="26" width="160" height="26" as="geometry" />
        </mxCell>
        <mxCell id="doakBsPh-R9lay9GGXW2-22" value="Nombre" style="text;align=left;verticalAlign=top;spacingLeft=4;spacingRight=4;overflow=hidden;rotatable=0;points=[[0,0.5],[1,0.5]];portConstraint=eastwest;" parent="doakBsPh-R9lay9GGXW2-20" vertex="1">
          <mxGeometry y="52" width="160" height="26" as="geometry" />
        </mxCell>
        <mxCell id="doakBsPh-R9lay9GGXW2-23" value="Descripcion" style="text;align=left;verticalAlign=top;spacingLeft=4;spacingRight=4;overflow=hidden;rotatable=0;points=[[0,0.5],[1,0.5]];portConstraint=eastwest;rounded=0;shadow=0;html=0;" parent="doakBsPh-R9lay9GGXW2-20" vertex="1">
          <mxGeometry y="78" width="160" height="26" as="geometry" />
        </mxCell>
        <mxCell id="doakBsPh-R9lay9GGXW2-25" value="" style="line;html=1;strokeWidth=1;align=left;verticalAlign=middle;spacingTop=-1;spacingLeft=3;spacingRight=3;rotatable=0;labelPosition=right;points=[];portConstraint=eastwest;" parent="doakBsPh-R9lay9GGXW2-20" vertex="1">
          <mxGeometry y="104" width="160" height="8" as="geometry" />
        </mxCell>
        <mxCell id="FrrXkEWVm4gh1E0Oda3U-2" style="edgeStyle=orthogonalEdgeStyle;rounded=0;orthogonalLoop=1;jettySize=auto;html=1;entryX=-0.006;entryY=0.769;entryDx=0;entryDy=0;entryPerimeter=0;dashed=1;" parent="WIyWlLk6GJQsqaUBKTNV-1" source="M_nrPv68LQVrj1rYmoWH-0" target="-KuMpNJdJ7WEaTeVx7aB-81" edge="1">
          <mxGeometry relative="1" as="geometry" />
        </mxCell>
        <mxCell id="M_nrPv68LQVrj1rYmoWH-0" value="Entrada" style="swimlane;fontStyle=2;align=center;verticalAlign=top;childLayout=stackLayout;horizontal=1;startSize=26;horizontalStack=0;resizeParent=1;resizeLast=0;collapsible=1;marginBottom=0;rounded=0;shadow=0;strokeWidth=1;" parent="WIyWlLk6GJQsqaUBKTNV-1" vertex="1">
          <mxGeometry x="520" y="-40" width="160" height="138" as="geometry">
            <mxRectangle x="230" y="140" width="160" height="26" as="alternateBounds" />
          </mxGeometry>
        </mxCell>
        <mxCell id="M_nrPv68LQVrj1rYmoWH-1" value="Codigo" style="text;align=left;verticalAlign=top;spacingLeft=4;spacingRight=4;overflow=hidden;rotatable=0;points=[[0,0.5],[1,0.5]];portConstraint=eastwest;" parent="M_nrPv68LQVrj1rYmoWH-0" vertex="1">
          <mxGeometry y="26" width="160" height="26" as="geometry" />
        </mxCell>
        <mxCell id="M_nrPv68LQVrj1rYmoWH-2" value="Descripcion: String" style="text;align=left;verticalAlign=top;spacingLeft=4;spacingRight=4;overflow=hidden;rotatable=0;points=[[0,0.5],[1,0.5]];portConstraint=eastwest;rounded=0;shadow=0;html=0;" parent="M_nrPv68LQVrj1rYmoWH-0" vertex="1">
          <mxGeometry y="52" width="160" height="26" as="geometry" />
        </mxCell>
        <mxCell id="M_nrPv68LQVrj1rYmoWH-3" value="Cantidad" style="text;align=left;verticalAlign=top;spacingLeft=4;spacingRight=4;overflow=hidden;rotatable=0;points=[[0,0.5],[1,0.5]];portConstraint=eastwest;rounded=0;shadow=0;html=0;" parent="M_nrPv68LQVrj1rYmoWH-0" vertex="1">
          <mxGeometry y="78" width="160" height="26" as="geometry" />
        </mxCell>
        <mxCell id="M_nrPv68LQVrj1rYmoWH-4" value="Fecha" style="text;align=left;verticalAlign=top;spacingLeft=4;spacingRight=4;overflow=hidden;rotatable=0;points=[[0,0.5],[1,0.5]];portConstraint=eastwest;" parent="M_nrPv68LQVrj1rYmoWH-0" vertex="1">
          <mxGeometry y="104" width="160" height="26" as="geometry" />
        </mxCell>
        <mxCell id="M_nrPv68LQVrj1rYmoWH-5" value="" style="line;html=1;strokeWidth=1;align=left;verticalAlign=middle;spacingTop=-1;spacingLeft=3;spacingRight=3;rotatable=0;labelPosition=right;points=[];portConstraint=eastwest;" parent="M_nrPv68LQVrj1rYmoWH-0" vertex="1">
          <mxGeometry y="130" width="160" height="8" as="geometry" />
        </mxCell>
        <mxCell id="LgvfmR9-56JRPEU1bEDX-6" value="Seccion" style="swimlane;fontStyle=2;align=center;verticalAlign=top;childLayout=stackLayout;horizontal=1;startSize=26;horizontalStack=0;resizeParent=1;resizeLast=0;collapsible=1;marginBottom=0;rounded=0;shadow=0;strokeWidth=1;" parent="WIyWlLk6GJQsqaUBKTNV-1" vertex="1">
          <mxGeometry x="30" y="-658" width="160" height="138" as="geometry">
            <mxRectangle x="230" y="140" width="160" height="26" as="alternateBounds" />
          </mxGeometry>
        </mxCell>
        <mxCell id="LgvfmR9-56JRPEU1bEDX-7" value="Codigo" style="text;align=left;verticalAlign=top;spacingLeft=4;spacingRight=4;overflow=hidden;rotatable=0;points=[[0,0.5],[1,0.5]];portConstraint=eastwest;" parent="LgvfmR9-56JRPEU1bEDX-6" vertex="1">
          <mxGeometry y="26" width="160" height="26" as="geometry" />
        </mxCell>
        <mxCell id="LgvfmR9-56JRPEU1bEDX-8" value="Nombre: String" style="text;align=left;verticalAlign=top;spacingLeft=4;spacingRight=4;overflow=hidden;rotatable=0;points=[[0,0.5],[1,0.5]];portConstraint=eastwest;" parent="LgvfmR9-56JRPEU1bEDX-6" vertex="1">
          <mxGeometry y="52" width="160" height="26" as="geometry" />
        </mxCell>
        <mxCell id="LgvfmR9-56JRPEU1bEDX-9" value="Descripcion: String" style="text;align=left;verticalAlign=top;spacingLeft=4;spacingRight=4;overflow=hidden;rotatable=0;points=[[0,0.5],[1,0.5]];portConstraint=eastwest;rounded=0;shadow=0;html=0;" parent="LgvfmR9-56JRPEU1bEDX-6" vertex="1">
          <mxGeometry y="78" width="160" height="26" as="geometry" />
        </mxCell>
        <mxCell id="LgvfmR9-56JRPEU1bEDX-11" value="" style="line;html=1;strokeWidth=1;align=left;verticalAlign=middle;spacingTop=-1;spacingLeft=3;spacingRight=3;rotatable=0;labelPosition=right;points=[];portConstraint=eastwest;" parent="LgvfmR9-56JRPEU1bEDX-6" vertex="1">
          <mxGeometry y="104" width="160" height="8" as="geometry" />
        </mxCell>
        <mxCell id="LgvfmR9-56JRPEU1bEDX-16" value="Descripcion" style="text;align=left;verticalAlign=top;spacingLeft=4;spacingRight=4;overflow=hidden;rotatable=0;points=[[0,0.5],[1,0.5]];portConstraint=eastwest;rounded=0;shadow=0;html=0;" parent="WIyWlLk6GJQsqaUBKTNV-1" vertex="1">
          <mxGeometry x="420" y="724" width="160" height="26" as="geometry" />
        </mxCell>
        <mxCell id="LgvfmR9-56JRPEU1bEDX-34" style="edgeStyle=orthogonalEdgeStyle;rounded=0;orthogonalLoop=1;jettySize=auto;html=1;endArrow=diamondThin;endFill=1;startSize=10;endSize=10;" parent="WIyWlLk6GJQsqaUBKTNV-1" source="LgvfmR9-56JRPEU1bEDX-17" target="LgvfmR9-56JRPEU1bEDX-26" edge="1">
          <mxGeometry relative="1" as="geometry">
            <Array as="points">
              <mxPoint x="1060" y="-945" />
              <mxPoint x="1060" y="-945" />
            </Array>
          </mxGeometry>
        </mxCell>
        <mxCell id="LgvfmR9-56JRPEU1bEDX-17" value="Almacen" style="swimlane;fontStyle=2;align=center;verticalAlign=top;childLayout=stackLayout;horizontal=1;startSize=26;horizontalStack=0;resizeParent=1;resizeLast=0;collapsible=1;marginBottom=0;rounded=0;shadow=0;strokeWidth=1;" parent="WIyWlLk6GJQsqaUBKTNV-1" vertex="1">
          <mxGeometry x="724" y="-1040" width="160" height="190" as="geometry">
            <mxRectangle x="230" y="140" width="160" height="26" as="alternateBounds" />
          </mxGeometry>
        </mxCell>
        <mxCell id="LgvfmR9-56JRPEU1bEDX-18" value="Codigo" style="text;align=left;verticalAlign=top;spacingLeft=4;spacingRight=4;overflow=hidden;rotatable=0;points=[[0,0.5],[1,0.5]];portConstraint=eastwest;" parent="LgvfmR9-56JRPEU1bEDX-17" vertex="1">
          <mxGeometry y="26" width="160" height="26" as="geometry" />
        </mxCell>
        <mxCell id="LgvfmR9-56JRPEU1bEDX-24" value="Pais: String" style="text;align=left;verticalAlign=top;spacingLeft=4;spacingRight=4;overflow=hidden;rotatable=0;points=[[0,0.5],[1,0.5]];portConstraint=eastwest;rounded=0;shadow=0;html=0;" parent="LgvfmR9-56JRPEU1bEDX-17" vertex="1">
          <mxGeometry y="52" width="160" height="26" as="geometry" />
        </mxCell>
        <mxCell id="LgvfmR9-56JRPEU1bEDX-22" value="Departamento: String" style="text;align=left;verticalAlign=top;spacingLeft=4;spacingRight=4;overflow=hidden;rotatable=0;points=[[0,0.5],[1,0.5]];portConstraint=eastwest;rounded=0;shadow=0;html=0;" parent="LgvfmR9-56JRPEU1bEDX-17" vertex="1">
          <mxGeometry y="78" width="160" height="26" as="geometry" />
        </mxCell>
        <mxCell id="LgvfmR9-56JRPEU1bEDX-19" value="Nombre: String" style="text;align=left;verticalAlign=top;spacingLeft=4;spacingRight=4;overflow=hidden;rotatable=0;points=[[0,0.5],[1,0.5]];portConstraint=eastwest;" parent="LgvfmR9-56JRPEU1bEDX-17" vertex="1">
          <mxGeometry y="104" width="160" height="26" as="geometry" />
        </mxCell>
        <mxCell id="LgvfmR9-56JRPEU1bEDX-20" value="Descripcion: String" style="text;align=left;verticalAlign=top;spacingLeft=4;spacingRight=4;overflow=hidden;rotatable=0;points=[[0,0.5],[1,0.5]];portConstraint=eastwest;rounded=0;shadow=0;html=0;" parent="LgvfmR9-56JRPEU1bEDX-17" vertex="1">
          <mxGeometry y="130" width="160" height="26" as="geometry" />
        </mxCell>
        <mxCell id="LgvfmR9-56JRPEU1bEDX-21" value="" style="line;html=1;strokeWidth=1;align=left;verticalAlign=middle;spacingTop=-1;spacingLeft=3;spacingRight=3;rotatable=0;labelPosition=right;points=[];portConstraint=eastwest;" parent="LgvfmR9-56JRPEU1bEDX-17" vertex="1">
          <mxGeometry y="156" width="160" height="8" as="geometry" />
        </mxCell>
        <mxCell id="LgvfmR9-56JRPEU1bEDX-26" value="Ciudad" style="swimlane;fontStyle=2;align=center;verticalAlign=top;childLayout=stackLayout;horizontal=1;startSize=26;horizontalStack=0;resizeParent=1;resizeLast=0;collapsible=1;marginBottom=0;rounded=0;shadow=0;strokeWidth=1;" parent="WIyWlLk6GJQsqaUBKTNV-1" vertex="1">
          <mxGeometry x="1120" y="-1040" width="180" height="242" as="geometry">
            <mxRectangle x="230" y="140" width="160" height="26" as="alternateBounds" />
          </mxGeometry>
        </mxCell>
        <mxCell id="LgvfmR9-56JRPEU1bEDX-27" value="-codigo: String" style="text;align=left;verticalAlign=top;spacingLeft=4;spacingRight=4;overflow=hidden;rotatable=0;points=[[0,0.5],[1,0.5]];portConstraint=eastwest;" parent="LgvfmR9-56JRPEU1bEDX-26" vertex="1">
          <mxGeometry y="26" width="180" height="26" as="geometry" />
        </mxCell>
        <mxCell id="LgvfmR9-56JRPEU1bEDX-28" value="+nombre: String" style="text;align=left;verticalAlign=top;spacingLeft=4;spacingRight=4;overflow=hidden;rotatable=0;points=[[0,0.5],[1,0.5]];portConstraint=eastwest;" parent="LgvfmR9-56JRPEU1bEDX-26" vertex="1">
          <mxGeometry y="52" width="180" height="26" as="geometry" />
        </mxCell>
        <mxCell id="LgvfmR9-56JRPEU1bEDX-33" value="+Departamento: departamento" style="text;align=left;verticalAlign=top;spacingLeft=4;spacingRight=4;overflow=hidden;rotatable=0;points=[[0,0.5],[1,0.5]];portConstraint=eastwest;" parent="LgvfmR9-56JRPEU1bEDX-26" vertex="1">
          <mxGeometry y="78" width="180" height="26" as="geometry" />
        </mxCell>
        <mxCell id="LgvfmR9-56JRPEU1bEDX-30" value="" style="line;html=1;strokeWidth=1;align=left;verticalAlign=middle;spacingTop=-1;spacingLeft=3;spacingRight=3;rotatable=0;labelPosition=right;points=[];portConstraint=eastwest;" parent="LgvfmR9-56JRPEU1bEDX-26" vertex="1">
          <mxGeometry y="104" width="180" height="8" as="geometry" />
        </mxCell>
        <mxCell id="LgvfmR9-56JRPEU1bEDX-31" value="+Ciudad()" style="text;align=left;verticalAlign=top;spacingLeft=4;spacingRight=4;overflow=hidden;rotatable=0;points=[[0,0.5],[1,0.5]];portConstraint=eastwest;" parent="LgvfmR9-56JRPEU1bEDX-26" vertex="1">
          <mxGeometry y="112" width="180" height="26" as="geometry" />
        </mxCell>
        <mxCell id="LgvfmR9-56JRPEU1bEDX-32" value="+Ciudad(codigo: String,nombre: String, departamento: Departamento)" style="text;align=left;verticalAlign=top;spacingLeft=4;spacingRight=4;overflow=hidden;rotatable=0;points=[[0,0.5],[1,0.5]];portConstraint=eastwest;" parent="LgvfmR9-56JRPEU1bEDX-26" vertex="1">
          <mxGeometry y="138" width="180" height="26" as="geometry" />
        </mxCell>
        <mxCell id="8hj5-_Y29ak0zoG11Ngq-7" value="+getCodigo(): String" style="text;align=left;verticalAlign=top;spacingLeft=4;spacingRight=4;overflow=hidden;rotatable=0;points=[[0,0.5],[1,0.5]];portConstraint=eastwest;" vertex="1" parent="LgvfmR9-56JRPEU1bEDX-26">
          <mxGeometry y="164" width="180" height="26" as="geometry" />
        </mxCell>
        <mxCell id="8hj5-_Y29ak0zoG11Ngq-9" value="+getNombre(): String" style="text;align=left;verticalAlign=top;spacingLeft=4;spacingRight=4;overflow=hidden;rotatable=0;points=[[0,0.5],[1,0.5]];portConstraint=eastwest;" vertex="1" parent="LgvfmR9-56JRPEU1bEDX-26">
          <mxGeometry y="190" width="180" height="26" as="geometry" />
        </mxCell>
        <mxCell id="8hj5-_Y29ak0zoG11Ngq-10" value="+getDepartamento(): String" style="text;align=left;verticalAlign=top;spacingLeft=4;spacingRight=4;overflow=hidden;rotatable=0;points=[[0,0.5],[1,0.5]];portConstraint=eastwest;" vertex="1" parent="LgvfmR9-56JRPEU1bEDX-26">
          <mxGeometry y="216" width="180" height="26" as="geometry" />
        </mxCell>
        <mxCell id="8hj5-_Y29ak0zoG11Ngq-0" value="Ciudad" style="swimlane;fontStyle=2;align=center;verticalAlign=top;childLayout=stackLayout;horizontal=1;startSize=26;horizontalStack=0;resizeParent=1;resizeLast=0;collapsible=1;marginBottom=0;rounded=0;shadow=0;strokeWidth=1;" vertex="1" parent="WIyWlLk6GJQsqaUBKTNV-1">
          <mxGeometry x="1474" y="-1040" width="180" height="164" as="geometry">
            <mxRectangle x="230" y="140" width="160" height="26" as="alternateBounds" />
          </mxGeometry>
        </mxCell>
        <mxCell id="8hj5-_Y29ak0zoG11Ngq-1" value="-codigo: String" style="text;align=left;verticalAlign=top;spacingLeft=4;spacingRight=4;overflow=hidden;rotatable=0;points=[[0,0.5],[1,0.5]];portConstraint=eastwest;" vertex="1" parent="8hj5-_Y29ak0zoG11Ngq-0">
          <mxGeometry y="26" width="180" height="26" as="geometry" />
        </mxCell>
        <mxCell id="8hj5-_Y29ak0zoG11Ngq-2" value="+nombre: String" style="text;align=left;verticalAlign=top;spacingLeft=4;spacingRight=4;overflow=hidden;rotatable=0;points=[[0,0.5],[1,0.5]];portConstraint=eastwest;" vertex="1" parent="8hj5-_Y29ak0zoG11Ngq-0">
          <mxGeometry y="52" width="180" height="26" as="geometry" />
        </mxCell>
        <mxCell id="8hj5-_Y29ak0zoG11Ngq-3" value="+Departamento: departamento" style="text;align=left;verticalAlign=top;spacingLeft=4;spacingRight=4;overflow=hidden;rotatable=0;points=[[0,0.5],[1,0.5]];portConstraint=eastwest;" vertex="1" parent="8hj5-_Y29ak0zoG11Ngq-0">
          <mxGeometry y="78" width="180" height="26" as="geometry" />
        </mxCell>
        <mxCell id="8hj5-_Y29ak0zoG11Ngq-4" value="" style="line;html=1;strokeWidth=1;align=left;verticalAlign=middle;spacingTop=-1;spacingLeft=3;spacingRight=3;rotatable=0;labelPosition=right;points=[];portConstraint=eastwest;" vertex="1" parent="8hj5-_Y29ak0zoG11Ngq-0">
          <mxGeometry y="104" width="180" height="8" as="geometry" />
        </mxCell>
        <mxCell id="8hj5-_Y29ak0zoG11Ngq-5" value="+Ciudad()" style="text;align=left;verticalAlign=top;spacingLeft=4;spacingRight=4;overflow=hidden;rotatable=0;points=[[0,0.5],[1,0.5]];portConstraint=eastwest;" vertex="1" parent="8hj5-_Y29ak0zoG11Ngq-0">
          <mxGeometry y="112" width="180" height="26" as="geometry" />
        </mxCell>
        <mxCell id="8hj5-_Y29ak0zoG11Ngq-6" value="+Ciudad(codigo: String,nombre: String, departamento: Departamento)" style="text;align=left;verticalAlign=top;spacingLeft=4;spacingRight=4;overflow=hidden;rotatable=0;points=[[0,0.5],[1,0.5]];portConstraint=eastwest;" vertex="1" parent="8hj5-_Y29ak0zoG11Ngq-0">
          <mxGeometry y="138" width="180" height="26" as="geometry" />
        </mxCell>
      </root>
    </mxGraphModel>
  </diagram>
</mxfile>
